<?xml version="1.0" encoding="utf-8"?>
<!-- Generator: Adobe Illustrator 21.1.0, SVG Export Plug-In . SVG Version: 6.00 Build 0)  -->
<svg version="1.1" id="Ñëîé_1" xmlns="http://www.w3.org/2000/svg" xmlns:xlink="http://www.w3.org/1999/xlink" x="0px" y="0px"
	 viewBox="0 0 37 37" style="enable-background:new 0 0 37 37;" xml:space="preserve">
<style type="text/css">
	.st0{fill:#F66200;}
	.st1{fill:#FF7900;}
	.st2{fill:#FFFFFF;}
</style>
<path class="st0" d="M30.6,0.5H6.4c-3.2,0-5.9,2.6-5.9,5.9v24.3c0,3.2,2.6,5.9,5.9,5.9h24.3c3.2,0,5.9-2.6,5.9-5.9V6.4
	C36.5,3.1,33.9,0.5,30.6,0.5z"/>
<path class="st1" d="M33.5,30.6c0,1.6-1.3,2.9-2.9,2.9H6.4c-1.6,0-2.9-1.3-2.9-2.9V6.4c0-1.6,1.3-2.9,2.9-2.9h24.3
	c1.6,0,2.9,1.3,2.9,2.9V30.6z"/>
<path class="st2" d="M27,25.4c-0.2,0.5-0.8,1-1.6,1.4c-0.8,0.4-1.6,0.6-2.3,0.6c-0.2,0-0.4,0-0.6,0c-0.2,0-0.4-0.1-0.5-0.1
	c-0.1,0-0.3-0.1-0.6-0.2c-0.2-0.1-0.4-0.1-0.5-0.2c-0.1,0-0.3-0.1-0.6-0.2c-0.3-0.1-0.4-0.2-0.5-0.2c-1.9-0.7-3.7-1.9-5.5-3.7
	c-1.8-1.8-3.1-3.6-3.7-5.5c0-0.1-0.1-0.2-0.2-0.5c-0.1-0.3-0.2-0.5-0.2-0.6c0-0.1-0.1-0.3-0.2-0.5c-0.1-0.2-0.1-0.4-0.2-0.6
	c0-0.1-0.1-0.3-0.1-0.5c0-0.2,0-0.4,0-0.6c0-0.7,0.2-1.4,0.6-2.3c0.4-0.8,0.9-1.4,1.4-1.6c0.6-0.3,1.2-0.4,1.7-0.4
	c0.1,0,0.2,0,0.3,0c0.1,0,0.2,0.1,0.3,0.3c0.1,0.2,0.3,0.4,0.4,0.7c0.2,0.3,0.3,0.6,0.5,0.8c0.1,0.3,0.3,0.5,0.4,0.8
	c0.1,0.3,0.2,0.4,0.3,0.5c0,0.1,0.1,0.2,0.2,0.3c0.1,0.2,0.2,0.3,0.3,0.4c0.1,0.1,0.1,0.2,0.1,0.4c0,0.2-0.1,0.4-0.4,0.6
	c-0.2,0.2-0.5,0.5-0.8,0.7c-0.3,0.2-0.5,0.4-0.8,0.7c-0.2,0.2-0.4,0.4-0.4,0.6c0,0.1,0,0.2,0.1,0.3c0,0.1,0.1,0.2,0.1,0.3
	c0,0.1,0.1,0.2,0.2,0.3c0.1,0.1,0.1,0.2,0.1,0.2c0.6,1.1,1.4,2.1,2.2,2.9c0.8,0.8,1.8,1.6,2.9,2.2c0,0,0.1,0.1,0.2,0.1
	c0.1,0.1,0.2,0.1,0.3,0.2c0.1,0,0.2,0.1,0.3,0.1c0.1,0,0.2,0.1,0.3,0.1c0.2,0,0.4-0.2,0.8-0.6c0.3-0.4,0.7-0.8,1-1.1
	c0.3-0.4,0.6-0.6,0.8-0.6c0.1,0,0.2,0,0.4,0.1c0.1,0.1,0.3,0.1,0.4,0.3c0.2,0.1,0.3,0.2,0.3,0.2l0.9,0.5c0.6,0.3,1.1,0.6,1.5,0.9
	c0.4,0.2,0.6,0.4,0.7,0.5c0,0.1,0,0.2,0,0.3C27.3,24.2,27.2,24.8,27,25.4z"/>
</svg>
