<?xml version="1.0" encoding="utf-8"?>
<!-- Generator: Adobe Illustrator 21.1.0, SVG Export Plug-In . SVG Version: 6.00 Build 0)  -->
<svg version="1.1" id="Ñëîé_1" xmlns="http://www.w3.org/2000/svg" xmlns:xlink="http://www.w3.org/1999/xlink" x="0px" y="0px"
	 viewBox="0 0 37 37" style="enable-background:new 0 0 37 37;" xml:space="preserve">
<style type="text/css">
	.st0{fill:#F66200;}
</style>
<g>
	<path class="st0" d="M36.4,11.1c-0.1-1.9-0.4-3.2-0.8-4.4c-0.5-1.2-1.2-2.3-2.1-3.2c-0.9-0.9-2-1.6-3.2-2.1
		c-1.1-0.4-2.5-0.8-4.4-0.8c-1.9-0.1-2.5-0.1-7.4-0.1s-5.5,0-7.4,0.1C9.2,0.7,7.9,1,6.7,1.4C5.5,1.9,4.4,2.6,3.5,3.5
		c-0.9,0.9-1.6,2-2.1,3.2C1,7.9,0.7,9.2,0.6,11.1c-0.1,1.9-0.1,2.5-0.1,7.4s0,5.5,0.1,7.4c0.1,1.9,0.4,3.2,0.8,4.4
		c0.5,1.2,1.2,2.3,2.1,3.2c0.9,0.9,2,1.6,3.2,2.1c1.1,0.4,2.5,0.8,4.4,0.8c1.9,0.1,2.5,0.1,7.4,0.1s5.5,0,7.4-0.1
		c1.9-0.1,3.2-0.4,4.4-0.8c2.4-0.9,4.3-2.8,5.3-5.3c0.4-1.1,0.8-2.5,0.8-4.4c0.1-1.9,0.1-2.5,0.1-7.4S36.5,13,36.4,11.1z M33.2,25.8
		c-0.1,1.8-0.4,2.7-0.6,3.3c-0.6,1.6-1.8,2.8-3.4,3.4c-0.6,0.2-1.6,0.5-3.3,0.6c-1.9,0.1-2.5,0.1-7.3,0.1s-5.4,0-7.3-0.1
		c-1.8-0.1-2.7-0.4-3.3-0.6c-0.8-0.3-1.5-0.7-2.1-1.3c-0.6-0.6-1.1-1.3-1.3-2.1c-0.2-0.6-0.5-1.6-0.6-3.3c-0.1-1.9-0.1-2.5-0.1-7.3
		s0-5.4,0.1-7.3c0.1-1.8,0.4-2.7,0.6-3.3c0.3-0.8,0.7-1.5,1.4-2.1c0.6-0.6,1.3-1.1,2.1-1.3C8.5,4.2,9.5,4,11.2,3.9
		c1.9-0.1,2.5-0.1,7.3-0.1c4.8,0,5.4,0,7.3,0.1c1.8,0.1,2.7,0.4,3.3,0.6c0.8,0.3,1.5,0.7,2.1,1.3c0.6,0.6,1.1,1.3,1.3,2.1
		c0.2,0.6,0.5,1.6,0.6,3.3c0.1,1.9,0.1,2.5,0.1,7.3S33.3,23.9,33.2,25.8z"/>
	<path class="st0" d="M18.5,9.3c-5.1,0-9.2,4.1-9.2,9.2s4.1,9.2,9.2,9.2c5.1,0,9.2-4.1,9.2-9.2S23.6,9.3,18.5,9.3z M18.5,24.5
		c-3.3,0-6-2.7-6-6s2.7-6,6-6c3.3,0,6,2.7,6,6S21.8,24.5,18.5,24.5z"/>
	<path class="st0" d="M30.3,8.9c0,1.2-1,2.2-2.2,2.2c-1.2,0-2.2-1-2.2-2.2c0-1.2,1-2.2,2.2-2.2C29.3,6.7,30.3,7.7,30.3,8.9z"/>
</g>
</svg>
