<?xml version="1.0" encoding="utf-8"?>
<!-- Generator: Adobe Illustrator 21.1.0, SVG Export Plug-In . SVG Version: 6.00 Build 0)  -->
<svg version="1.1" id="Ñëîé_1" xmlns="http://www.w3.org/2000/svg" xmlns:xlink="http://www.w3.org/1999/xlink" x="0px" y="0px"
	 viewBox="0 0 37 37" style="enable-background:new 0 0 37 37;" xml:space="preserve">
<style type="text/css">
	.st0{fill:#F66200;}
	.st1{fill:#FF7900;}
	.st2{fill:#FFFFFF;}
</style>
<path class="st0" d="M31.3,5.7c-3.4-3.4-7.9-5.3-12.7-5.3c-9.9,0-17.9,8-17.9,17.9c0,3.2,0.8,6.2,2.4,9l-2.5,9.3l9.5-2.5
	c2.6,1.4,5.6,2.2,8.6,2.2h0c9.9,0,17.9-8,17.9-17.9C36.5,13.6,34.6,9.1,31.3,5.7z"/>
<path class="st1" d="M18.6,33.2L18.6,33.2c-2.7,0-5.3-0.7-7.6-2.1l-0.5-0.3l-5.6,1.5l1.5-5.5L6,26.3c-1.5-2.4-2.3-5.1-2.3-7.9
	c0-8.2,6.7-14.9,14.9-14.9c4,0,7.7,1.6,10.5,4.4s4.4,6.6,4.4,10.5C33.5,26.6,26.8,33.2,18.6,33.2z"/>
<path class="st2" d="M26.7,22.1c-0.4-0.2-2.6-1.3-3.1-1.5c-0.4-0.1-0.7-0.2-1,0.2c-0.3,0.4-1.2,1.5-1.4,1.8c-0.3,0.3-0.5,0.3-1,0.1
	c-0.4-0.2-1.9-0.7-3.6-2.2c-1.3-1.2-2.2-2.7-2.5-3.1c-0.3-0.4,0-0.7,0.2-0.9c0.5-0.6,1-1.2,1.1-1.5c0.1-0.3,0.1-0.6,0-0.8
	c-0.1-0.2-1-2.4-1.4-3.3c-0.4-0.9-0.7-0.8-1-0.8c-0.3,0-0.6,0-0.9,0c-0.3,0-0.8,0.1-1.2,0.6c-0.4,0.4-1.6,1.5-1.6,3.7
	s1.6,4.3,1.8,4.6c0.2,0.3,3.2,4.8,7.7,6.8c1.1,0.5,1.9,0.7,2.6,0.9c1.1,0.3,2,0.3,2.8,0.2c0.9-0.1,2.6-1.1,3-2.1
	c0.4-1,0.4-1.9,0.3-2.1C27.5,22.4,27.2,22.3,26.7,22.1z"/>
</svg>
