<?xml version="1.0" encoding="utf-8"?>
<!-- Generator: Adobe Illustrator 21.1.0, SVG Export Plug-In . SVG Version: 6.00 Build 0)  -->
<svg version="1.1" id="Ñëîé_1" xmlns="http://www.w3.org/2000/svg" xmlns:xlink="http://www.w3.org/1999/xlink" x="0px" y="0px"
	 viewBox="0 0 90 90" style="enable-background:new 0 0 90 90;" xml:space="preserve">
<style type="text/css">
	.st0{fill-rule:evenodd;clip-rule:evenodd;fill:#FF7900;}
</style>
<g>
	<path class="st0" d="M58.5,46.9h14v3.1h-14V46.9z M58.5,53.1h14v3.1h-14V53.1z M75.5,46.9h14v3.1h-14V46.9z M75.5,59.3h14v3.1h-14
		V59.3z M75.5,53.1h14v3.1h-14V53.1z M27.1,49.9v3.1H38v3.1H27.1v3.1l0,0v3.1h-3.1v-0.8v-2.3v-3.1v-3.1v-3.1v-2.3v-0.8h14v3.1H27.1z
		 M8.2,49.9H3.6v3.1h9.1c1.1,0,1.6-0.8,1.6-1.7c0-0.9-0.8-1.5-1.6-1.5H8.2z M8.2,62.4H3H0.5v-0.8v-2.3v-3.1v-3.1v-3.1v-2.3v-0.8H3
		h5.2H13c2.8,0,4.5,2,4.6,4.3c0.1,1.2-0.3,2.4-1.1,3.4c0.7,0.8,1,1.8,1.1,2.8c0.1,2.3-1.5,5-4.6,5H8.2z M3.6,59.3h4.6h4.5
		c1.1,0,1.6-0.8,1.6-1.7c0-0.9-0.8-1.5-1.6-1.5H3.6V59.3z M40.3,53.1h9.6c1.1,0,1.6-0.8,1.6-1.7c0-0.9-0.8-1.5-1.6-1.5h-9.6v-3.1h10
		c2.8,0,4.5,2,4.6,4.3c0.1,2.3-1.5,5-4.6,5h-0.2l5.1,6.1h-3.9l-5.1-6.1h-5.9V53.1z M18.5,59.3h3.1v3.1h-3.1V59.3z M58.5,59.3h14v3.1
		h-14V59.3z"/>
	<path class="st0" d="M69.9,66.8c-4.6,5.5-12.2,10.9-19.7,13c-3.9,1.1-5.6,1.2-9.4,0.3c-7.7-2-15.8-7.6-20.6-13.3H69.9z M1.1,33.2
		c0,0-0.5-3.2,0.5-5.6c0.9-2.4,3.1-2.8,4.8-1.8c1.7,1,4.9,3.9,10.3,4.4c5.5,0.6,11.1-0.1,16.8-2.2c11-4.1,12-4.1,23.1,0
		c5.7,2.1,11.3,2.7,16.8,2.2c5.5-0.6,8.7-3.4,10.3-4.4c1.7-1,3.9-0.6,4.8,1.8c0.9,2.4,0.5,5.6,0.5,5.6c-0.2,2.4-1.6,6.3-4.2,9.3
		h-5.9c1.1-0.6,2.1-1.3,2.9-2.1c3.2-2.9,5.7-7.4,4.7-10.9c-0.4-1.1-1.6-1-2.6-0.2c-0.9,0.8-3.4,2.5-5.6,3.3
		c-3.6,1.3-9.3,0.5-8.8,6.5c0.1,1.5,0.5,2.6,1.2,3.4H19.4c0.6-0.8,1-1.9,1.2-3.4c0.5-6-5.2-5.2-8.8-6.5c-2.2-0.8-4.7-2.4-5.6-3.3
		c-0.9-0.8-2.2-0.9-2.6,0.2c-1,3.5,1.5,7.9,4.7,10.9c0.8,0.7,1.8,1.5,2.9,2.1H5.3C2.8,39.5,1.3,35.6,1.1,33.2z"/>
	<path class="st0" d="M6.9,22.3c7.8-13,22-21.7,38.2-21.7c16.1,0,30.3,8.6,38.1,21.5l-1.7,0.8C74,10.6,60.5,2.4,45.1,2.4
		C29.5,2.4,16,10.7,8.5,23.1L6.9,22.3z M45.1,89.5c-17.1,0-31.9-9.6-39.3-23.7h2.1C15.1,78.8,29,87.6,45.1,87.6s30-8.8,37.2-21.9
		h2.1C76.9,79.8,62.1,89.5,45.1,89.5z"/>
</g>
</svg>
