<?xml version="1.0" encoding="utf-8"?>
<!-- Generator: Adobe Illustrator 21.1.0, SVG Export Plug-In . SVG Version: 6.00 Build 0)  -->
<svg version="1.1" id="Layer_1" xmlns="http://www.w3.org/2000/svg" xmlns:xlink="http://www.w3.org/1999/xlink" x="0px" y="0px"
	 viewBox="0 0 52 52" style="enable-background:new 0 0 52 52;" xml:space="preserve">
<style type="text/css">
	.st0{fill:#FF7900;}
</style>
<g>
	<path class="st0" d="M25.9,51.2C12,51.2,0.7,39.9,0.7,26S12,0.8,25.9,0.8c5,0,9.9,1.5,14.1,4.3c1.3,0.8,1.6,2.6,0.7,3.8
		c-0.5,0.8-1.4,1.2-2.3,1.2c-0.5,0-1.1-0.2-1.5-0.5c-3.2-2.2-7-3.3-11-3.3C15.1,6.3,6.3,15.2,6.3,26c0,10.8,8.8,19.7,19.7,19.7
		S45.6,36.8,45.6,26c0-1.9-0.3-3.7-0.8-5.5c-0.4-1.5,0.4-3,1.9-3.4C47,17,47.2,17,47.5,17c1.2,0,2.3,0.8,2.6,2c0.7,2.3,1,4.6,1,7
		C51.1,39.9,39.8,51.2,25.9,51.2z"/>
	<path class="st0" d="M25.9,32.8c-0.7,0-1.4-0.3-2-0.8l-8.2-8.2c-1.1-1.1-1.1-2.8,0-3.9c0.5-0.5,1.2-0.8,2-0.8s1.4,0.3,2,0.8
		l6.2,6.2L46.4,5.7c0.5-0.5,1.2-0.8,2-0.8c0.7,0,1.4,0.3,2,0.8c1.1,1.1,1.1,2.8,0,3.9L27.9,32C27.4,32.6,26.7,32.8,25.9,32.8z"/>
</g>
</svg>
