<?xml version="1.0" encoding="utf-8"?>
<!-- Generator: Adobe Illustrator 21.1.0, SVG Export Plug-In . SVG Version: 6.00 Build 0)  -->
<svg version="1.1" id="Arrows" xmlns="http://www.w3.org/2000/svg" xmlns:xlink="http://www.w3.org/1999/xlink" x="0px" y="0px"
	 viewBox="0 0 305 95" style="enable-background:new 0 0 305 95;" xml:space="preserve">
<style type="text/css">
	.st0{fill:#FF7900;}
</style>
<path class="st0" d="M75.9,9.4c12.3,6.4,23.7,15.9,30.5,28.1c1.7,3,3.2,6.3,4.4,9.7c3.7,0.7,7.3,1.5,10.6,2.3
	c23.6,5.9,45.8,15.9,68.6,24.1c23.3,8.4,50.4,17.8,75.4,12.6c10.8-2.3,20.4-8,24.5-18.7c2.4-6.2,2.9-13,2.3-19.6
	c-1.3,5.8-4.2,11.1-9.5,14.3c-0.4,0.2-0.9-0.7-0.8-1c4.7-9.4,8.1-18.5,5.6-29.1c-1.1-4.4,3.3-1.6,4.4,0.5c4.3,8.4,7.7,16.7,9.9,25.9
	c0.5,2.1-1.6,0.8-2.1-0.2c-1.1-2.4-2.2-4.9-3.4-7.3c1.5,9.3,0.9,18.8-4.1,26.9c-9.3,15.2-29.7,17.3-45.7,15.9
	C204,90.3,166,67.2,125.3,56.5c-4-1.1-8.3-2.1-12.7-2.9c2.2,9.1,2.2,18.7-1.5,26.9c-6.6,14.5-24.4,17.9-36.7,8.5
	c-11.6-8.8-16.2-25.6-3.7-35.8c9.7-7.9,23.1-8.4,35.6-6.6c-3.7-10.9-11.2-19.8-20.5-26.8C61.7,1.6,22-4.5,4.6,25.7
	c-0.4,0.8-1.8-1-1.5-1.7C17.5-4.2,50.9-3.6,75.9,9.4z M76.8,57.4C69.6,62,64.7,69.9,69,78.2c3.7,7.3,12.5,11.8,20.5,10.6
	c17.3-2.6,21.4-21.4,18.5-35.9c0,0,0,0,0-0.1C97.1,51.3,85.9,51.7,76.8,57.4z"/>
</svg>
