<?xml version="1.0" encoding="utf-8"?>
<!-- Generator: Adobe Illustrator 21.1.0, SVG Export Plug-In . SVG Version: 6.00 Build 0)  -->
<svg version="1.1" id="Arrows" xmlns="http://www.w3.org/2000/svg" xmlns:xlink="http://www.w3.org/1999/xlink" x="0px" y="0px"
	 viewBox="0 0 162 90" style="enable-background:new 0 0 162 90;" xml:space="preserve">
<style type="text/css">
	.st0{fill:#FF7900;}
</style>
<path class="st0" d="M18.5,72.3C7,57,2.8,39.6,5,20.6c0.3-2.7,7.9-5.4,9-2.3c6.2,16.9,18.1,28.2,32.7,38c1.6,1.1-2.9,2.6-3.9,2.3
	c-6.7-2.4-12.7-6-18-10.5c14.4,23.2,40.5,36.4,69.6,32.1c36.9-5.4,62.3-37.2,58.2-74.5c-0.2-1.6,3.9-2.8,4.1-1.3
	c4.5,30.8-8.8,58.3-36.9,72.5c-24.9,12.6-57.4,13.5-81-2.5c-12.6-8.6-20.7-21.5-24.6-35.8c1.2,11.1,4.1,22,8.4,32.1
	C23.2,72,19.3,73.3,18.5,72.3z"/>
</svg>
