<?xml version="1.0" encoding="utf-8"?>
<!-- Generator: Adobe Illustrator 21.1.0, SVG Export Plug-In . SVG Version: 6.00 Build 0)  -->
<svg version="1.1" id="Arrows" xmlns="http://www.w3.org/2000/svg" xmlns:xlink="http://www.w3.org/1999/xlink" x="0px" y="0px"
	 viewBox="0 0 156 178" style="enable-background:new 0 0 156 178;" xml:space="preserve">
<style type="text/css">
	.st0{fill:#FF7900;}
</style>
<path class="st0" d="M4.9,6.1C2.4,37.8,25.4,61.5,50.7,76.8c9.9,6,20.5,11.2,31.6,15c-3.7,4.2-6.8,8.8-9.2,13.8
	c-9.5,19.4-3.9,47.3,13.4,60.1c-4.8-0.3-9.6-0.4-14.4,0.2c-1.1,0.1-3.3,3.1-2,4c9.1,6.2,22.3,4.7,32.9,4.5c2.1-0.1,7.3-5.7,4.3-7.4
	c-9.9-5.5-11.8-15.1-16.7-24.3c-0.8-1.5-2.6,1.7-2.6,2.4c0.2,4.1,1,7.9,2.2,11.5c-10.7-10.4-17.9-23.6-15.5-39.9
	c1.4-9.1,5.9-17,12.3-23.4c14.4,4.3,29.4,6,44.3,3.6c8.4-1.4,18.2-5.3,19.7-14.8c1.6-10-7.9-13.5-16.1-13.9
	c-16.6-0.8-33.3,5.8-46,16.8C77.4,81.4,66.2,76,55.6,69.7C31.9,55.6,7.8,34.2,8.2,4.3C8.2,1.6,5,4.6,4.9,6.1z M124.6,76.3
	c5.7-0.5,18.6-1.1,20.2,6.7c1.4,7.1-17.2,7.2-21.6,7.3c-9.6,0.2-19-1-28.1-3.4C104,80.8,114.6,77.1,124.6,76.3z"/>
</svg>
