<?xml version="1.0" encoding="utf-8"?>
<!-- Generator: Adobe Illustrator 21.1.0, SVG Export Plug-In . SVG Version: 6.00 Build 0)  -->
<svg version="1.1" id="Ñëîé_1" xmlns="http://www.w3.org/2000/svg" xmlns:xlink="http://www.w3.org/1999/xlink" x="0px" y="0px"
	 viewBox="0 0 100 100" style="enable-background:new 0 0 100 100;" xml:space="preserve">
<style type="text/css">
	.st0{fill:#FF7900;}
	.st1{fill:#1A1A18;}
</style>
<g>
	<path class="st0" d="M49.1,14.5c-2.2,0-20.4,6.7-20.4,17.3s3.4,21.5,8.7,26.7S50,73.2,50,73.2s16.5-20.6,18.9-26.7
		C71.3,40.3,76.6,14.5,49.1,14.5z M54.9,44.7L49.8,41l-5.1,3.7l2-6L41.5,35h6.3l2-6l2,6h6.3L53,38.7L54.9,44.7z"/>
	<g>
		<path class="st1" d="M81,61.2H62.5c4.7-6.2,12.2-16.9,12.2-24.7c0-13.6-11.1-24.7-24.7-24.7S25.3,22.9,25.3,36.5
			c0,7.8,7.5,18.5,12.2,24.7H19.1l-7,27h75.7L81,61.2z M80.4,77l1.7,6.7h-7.4V77H80.4z M29.8,36.5c0-11.1,9.1-20.2,20.2-20.2
			s20.2,9.1,20.2,20.2c0,8.7-13.4,25.1-20.2,32.6C43.1,61.6,29.8,45.2,29.8,36.5z M19.1,79.2h19.7v-4.5H20.3l2.3-9H41v-0.1
			c4,4.8,7.2,8.2,7.4,8.4l1.6,1.7l1.6-1.7c0.2-0.2,3.4-3.6,7.4-8.4v0.1h18.5l1.7,6.7H63.6V77h6.7v6.7H17.9L19.1,79.2z"/>
		<path class="st1" d="M50,45.1l8.5,4.5l-1.6-9.5l6.9-6.7L54.3,32L50,23.3L45.7,32l-9.6,1.4l6.9,6.7l-1.6,9.5L50,45.1z M48.7,36.1
			l1.3-2.6l1.3,2.6l2.9,0.4l-2.1,2l0.5,2.9L50,40l-2.6,1.4l0.5-2.9l-2.1-2L48.7,36.1z"/>
	</g>
</g>
</svg>
