<?xml version="1.0" encoding="utf-8"?>
<!-- Generator: Adobe Illustrator 21.1.0, SVG Export Plug-In . SVG Version: 6.00 Build 0)  -->
<svg version="1.1" id="Ñëîé_1" xmlns="http://www.w3.org/2000/svg" xmlns:xlink="http://www.w3.org/1999/xlink" x="0px" y="0px"
	 viewBox="0 0 100 100" style="enable-background:new 0 0 100 100;" xml:space="preserve">
<style type="text/css">
	.st0{fill:#FF7900;}
	.st1{fill:#1A1A18;}
</style>
<g>
	<circle class="st0" cx="50" cy="54.2" r="25.9"/>
	<g>
		<g>
			<path class="st1" d="M77,27.2c-6.6-6.6-15.2-10.5-24.5-11.1v-3.6h3.7c1.4,0,2.5-1.1,2.5-2.5s-1.1-2.5-2.5-2.5H43.9
				c-1.4,0-2.5,1.1-2.5,2.5s1.1,2.5,2.5,2.5h3.7v3.6c-6.4,0.4-12.4,2.4-17.7,5.7l-2.4-2.4c-1.2-1.2-2.7-1.8-4.3-1.8
				s-3.2,0.6-4.3,1.8L15.2,23c-2.4,2.4-2.4,6.2,0,8.6l2.4,2.4c-3.8,6-5.8,13-5.8,20.2c0,10.2,4,19.8,11.2,27.1
				c7.2,7.2,16.8,11.2,27,11.2s19.8-4,27-11.2c7.2-7.2,11.2-16.8,11.2-27.1S84.2,34.4,77,27.2z M18.7,26.5l3.6-3.6
				c0.3-0.3,0.6-0.3,0.8-0.3c0.2,0,0.5,0,0.8,0.3l1.8,1.8c-0.9,0.8-1.8,1.6-2.7,2.5c-0.9,0.9-1.7,1.8-2.5,2.7l-1.8-1.8
				C18.3,27.7,18.3,27,18.7,26.5z M50,87.5c-18.3,0-33.2-14.9-33.2-33.3S31.7,21,50,21s33.2,14.9,33.2,33.3S68.3,87.5,50,87.5z"/>
		</g>
	</g>
	<g>
		<g>
			<path class="st1" d="M50,25.6c-15.7,0-28.6,12.8-28.6,28.6S34.3,82.9,50,82.9S78.6,70,78.6,54.2S65.7,25.6,50,25.6z M52.5,77.7
				v-2.9c0-1.4-1.1-2.5-2.5-2.5c-1.4,0-2.5,1.1-2.5,2.5v2.9c-11-1.2-19.8-10-21-21h2.9c1.4,0,2.5-1.1,2.5-2.5c0-1.4-1.1-2.5-2.5-2.5
				h-2.9c1.2-11,9.9-19.8,21-21v2.9c0,1.4,1.1,2.5,2.5,2.5c1.4,0,2.5-1.1,2.5-2.5v-2.9c11,1.2,19.8,10,21,21h-2.9
				c-1.4,0-2.5,1.1-2.5,2.5c0,1.4,1.1,2.5,2.5,2.5h2.9C72.3,67.8,63.5,76.6,52.5,77.7z"/>
		</g>
	</g>
	<g>
		<g>
			<path class="st1" d="M56.1,52.8h-3.5V42.7c0-1.4-1.1-2.5-2.5-2.5c-1.4,0-2.5,1.1-2.5,2.5v12.6c0,1.4,1.1,2.5,2.5,2.5h6
				c1.4,0,2.5-1.1,2.5-2.5C58.6,53.9,57.5,52.8,56.1,52.8z"/>
		</g>
	</g>
</g>
</svg>
