<?xml version="1.0" encoding="utf-8"?>
<!-- Generator: Adobe Illustrator 21.1.0, SVG Export Plug-In . SVG Version: 6.00 Build 0)  -->
<svg version="1.1" id="Ñëîé_1" xmlns="http://www.w3.org/2000/svg" xmlns:xlink="http://www.w3.org/1999/xlink" x="0px" y="0px"
	 viewBox="0 0 100 100" style="enable-background:new 0 0 100 100;" xml:space="preserve">
<style type="text/css">
	.st0{fill:#FF7900;}
	.st1{fill:#1A1A18;}
</style>
<g>
	<path class="st0" d="M24.2,70.1c-2.3,0.2-6.6,1.3-6.9,6c-0.3,4.7-3.8,12.1-3.8,12.1s10.5,0,13.1-2.3c2.7-2.3,5.6-10.5,4.4-12.7
		C29.8,71,25.4,70,24.2,70.1z"/>
	<circle class="st0" cx="36.6" cy="45.9" r="5.5"/>
	<circle class="st0" cx="50" cy="32.9" r="5.5"/>
	<circle class="st0" cx="67.9" cy="37.7" r="5.5"/>
	<circle class="st0" cx="72.8" cy="55.9" r="5.5"/>
	<circle class="st0" cx="59.5" cy="69.1" r="5.5"/>
	<g>
		<path class="st1" d="M33.6,76.8c0-2.7-1.1-5.1-3-6.8l0,0c0.2-2.3,0.3-4.7,0.4-7.2c4.8,0.9,8.2,2.7,10.1,5.4
			c2.5,3.5,1.8,7.6,1.6,8.7c-0.9,3.9,1.4,7.9,5.4,8.6c2.3,0.4,4.5,0.7,6.8,0.7c7.9,0,15.8-2.7,22.3-8.1C85.3,71.3,90,61.4,90,51
			c0-19.8-17.2-35.9-35.2-35.3c-9.8,0.4-18.6,5.2-24.7,10.5c-0.1-0.7-0.2-1.4-0.2-2.1c-0.4-3.6-1-6.4-1.6-8.5
			c-0.4-1.4-1.4-4.7-4.1-4.7s-3.7,3.3-4.1,4.7c-0.6,2-1.1,4.9-1.6,8.5c-0.9,7.2-1.4,16.8-1.4,26.9c0,6.6,0.2,13.2,0.6,18.9l0,0
			c-1.8,1.7-3,4.1-3,6.8v4.8c0,2.5-2.2,4.7-4.8,4.7V91h9.5C27.3,91,33.6,84.6,33.6,76.8L33.6,76.8z M55,20.4
			C70.1,19.9,85.3,33.7,85.3,51c0,9-4.1,17.6-11.2,23.5c-7,5.8-16.2,8.2-25.2,6.4c-1.3-0.3-2-1.7-1.7-3c0.5-2.1,1.2-7.6-2.3-12.5
			c-2.8-3.9-7.4-6.4-13.8-7.4c0.1-2.3,0.1-7.2,0.1-7.2c0.9,1.1,2.1,1.8,3.5,2.2c3.8,1,7.6-1.2,8.6-5c1-3.7-1.2-7.6-5-8.6
			c-2.8-0.8-5.6,0.3-7.3,2.4c-0.1-3.3-0.3-6.5-0.5-9.5C35.9,26.6,44.9,20.8,55,20.4L55,20.4z M33,45.2c0.5-2,2.6-3.2,4.6-2.6
			c2,0.5,3.2,2.6,2.6,4.6c-0.5,2-2.6,3.2-4.6,2.6C33.6,49.2,32.4,47.2,33,45.2z M23,26.7c0.4-3.8,0.8-6.3,1.2-8.1
			c0.4,1.7,0.8,4.3,1.2,8.1c0.7,6.8,1.1,15.4,1.1,24.3c0,0.8,0,1.6,0,2.3h-4.7c0-0.8,0-1.6,0-2.3C21.9,42.1,22.3,33.4,23,26.7z
			 M22,58h4.5c-0.1,3.3-0.2,6.5-0.4,9.6c-0.6-0.1-1.2-0.2-1.9-0.2s-1.3,0.1-1.9,0.2C22.2,64.6,22,61.3,22,58z M19.5,81.6v-4.8
			c0-2.6,2.1-4.7,4.7-4.7s4.7,2.1,4.7,4.7c0,5.3-4.2,9.5-9.4,9.5h-1.3C19.1,84.9,19.5,83.3,19.5,81.6z"/>
		<path class="st1" d="M72.9,42.7c2.7-2.7,2.7-7.2,0-9.9c-2.7-2.7-7.2-2.7-9.9,0c-2.7,2.7-2.7,7.2,0,9.9
			C65.7,45.5,70.2,45.5,72.9,42.7L72.9,42.7z M65.3,35.1c1.5-1.5,3.9-1.5,5.3,0c1.5,1.5,1.5,3.9,0,5.3c-1.5,1.5-3.9,1.5-5.3,0
			C63.8,38.9,63.8,36.5,65.3,35.1z"/>
		<path class="st1" d="M51.7,39.7c3.7-1,6-4.9,5-8.6c-1-3.7-4.9-6-8.6-5c-3.7,1-6,4.9-5,8.6C44,38.5,47.9,40.7,51.7,39.7z
			 M48.8,29.1c2.1-0.6,4.2,0.7,4.8,2.8c0.6,2.1-0.7,4.2-2.8,4.8c-2.1,0.6-4.2-0.7-4.8-2.8C45.5,31.8,46.7,29.7,48.8,29.1z"/>
		<path class="st1" d="M52.7,70.9c1,3.7,4.9,6,8.6,5c3.7-1,6-4.9,5-8.6c-1-3.8-4.9-6-8.6-5C54,63.3,51.7,67.2,52.7,70.9L52.7,70.9z
			 M58.5,65.3c2.1-0.6,4.2,0.7,4.8,2.8c0.6,2.1-0.7,4.2-2.8,4.8c-2.1,0.6-4.2-0.7-4.8-2.8C55.2,68,56.5,65.9,58.5,65.3z"/>
		<path class="st1" d="M66,54c-1,3.7,1.2,7.6,5,8.6c3.8,1,7.6-1.2,8.6-5c1-3.8-1.2-7.6-5-8.6C70.9,48.1,67,50.3,66,54L66,54z
			 M76.7,56.9c-0.6,2.2-2.8,3.5-5,2.9c-2.2-0.6-3.5-2.8-2.9-5c0.6-2.2,2.8-3.5,5-2.9C76,52.5,77.3,54.7,76.7,56.9z"/>
	</g>
</g>
</svg>
