<?xml version="1.0" encoding="utf-8"?>
<!-- Generator: Adobe Illustrator 21.1.0, SVG Export Plug-In . SVG Version: 6.00 Build 0)  -->
<svg version="1.1" id="Ñëîé_1" xmlns="http://www.w3.org/2000/svg" xmlns:xlink="http://www.w3.org/1999/xlink" x="0px" y="0px"
	 viewBox="0 0 100 100" style="enable-background:new 0 0 100 100;" xml:space="preserve">
<style type="text/css">
	.st0{fill:#FF7900;}
	.st1{fill:#1A1A18;}
</style>
<g>
	<rect x="69.1" y="50" class="st0" width="12.9" height="12.9"/>
	<rect x="60.3" y="62.9" class="st0" width="12.9" height="12.9"/>
	<rect x="74" y="62.9" class="st0" width="12.9" height="12.9"/>
	<path class="st0" d="M64.7,32.4h-8.1c-0.5-1.7-1.2-3.4-2.1-5l5.8-5.8c0.3-0.3,0.4-0.6,0.4-1c0-0.4-0.2-0.8-0.4-1L54,13.4
		c-0.6-0.6-1.5-0.6-2.1,0l-5.8,5.8c-1.6-0.9-3.2-1.6-5-2.1V9c0-0.8-0.7-1.5-1.5-1.5h-8.8c-0.8,0-1.5,0.7-1.5,1.5v8.1
		c-1.7,0.5-3.4,1.2-5,2.1l-5.8-5.8c-0.6-0.5-1.5-0.5-2.1,0l-6.2,6.2c-0.3,0.3-0.4,0.6-0.4,1c0,0.4,0.2,0.8,0.4,1l5.8,5.8
		c-0.9,1.6-1.6,3.2-2.1,5H6c-0.8,0-1.5,0.7-1.5,1.5v8.8c0,0.8,0.7,1.5,1.5,1.5h8.1c0.5,1.7,1.2,3.4,2.1,5l-5.8,5.8
		c-0.3,0.3-0.4,0.6-0.4,1c0,0.4,0.2,0.8,0.4,1l6.2,6.2c0.6,0.6,1.5,0.6,2.1,0l5.8-5.8c1.6,0.9,3.2,1.6,5,2.1v8.1
		c0,0.8,0.7,1.5,1.5,1.5h8.8c0.8,0,1.5-0.7,1.5-1.5v-8.1c1.7-0.5,3.4-1.2,5-2.1l5.8,5.8c0.6,0.5,1.5,0.5,2.1,0l6.2-6.2
		c0.3-0.3,0.4-0.6,0.4-1c0-0.4-0.2-0.8-0.4-1l-5.8-5.8c0.9-1.6,1.6-3.2,2.1-5h8.1c0.8,0,1.5-0.7,1.5-1.5v-8.8
		C66.1,33.1,65.5,32.4,64.7,32.4z M35.3,48.4c-5.7,0-10.3-4.6-10.3-10.3s4.6-10.3,10.3-10.3s10.3,4.6,10.3,10.3S41,48.4,35.3,48.4z"
		/>
	<path class="st1" d="M6,44.1h8.1c0.5,1.7,1.2,3.4,2.1,5l-5.8,5.8c-0.3,0.3-0.4,0.6-0.4,1s0.2,0.8,0.4,1l6.2,6.2
		c0.6,0.6,1.5,0.6,2.1,0l5.8-5.8c1.6,0.9,3.2,1.6,5,2.1v8.1c0,0.8,0.7,1.5,1.5,1.5h8.8c0.8,0,1.5-0.7,1.5-1.5v-8.1
		c1.7-0.5,3.4-1.2,5-2.1l5.8,5.8c0.6,0.5,1.5,0.5,2.1,0l6.2-6.2c0.3-0.3,0.4-0.6,0.4-1s-0.2-0.8-0.4-1l-5.8-5.8
		c0.9-1.6,1.6-3.2,2.1-5h8.1c0.8,0,1.5-0.7,1.5-1.5v-8.8c0-0.8-0.7-1.5-1.5-1.5h-8.1c-0.5-1.7-1.2-3.4-2.1-5l5.8-5.8
		c0.3-0.3,0.4-0.6,0.4-1s-0.2-0.8-0.4-1L54,13.4c-0.6-0.6-1.5-0.6-2.1,0l-5.8,5.8c-1.6-0.9-3.2-1.6-5-2.1V9c0-0.8-0.7-1.5-1.5-1.5
		h-8.8c-0.8,0-1.5,0.7-1.5,1.5v8.1c-1.7,0.5-3.4,1.2-5,2.1l-5.8-5.8c-0.6-0.5-1.5-0.5-2.1,0l-6.2,6.2c-0.3,0.3-0.4,0.6-0.4,1
		s0.2,0.8,0.4,1l5.8,5.8c-0.9,1.6-1.6,3.2-2.1,5H6c-0.8,0-1.5,0.7-1.5,1.5v8.8C4.6,43.5,5.2,44.1,6,44.1z M7.5,35.3h7.8
		c0.7,0,1.3-0.5,1.4-1.2c0.5-2.2,1.4-4.3,2.6-6.2c0.4-0.6,0.3-1.3-0.2-1.8l-5.5-5.5l4.1-4.1l5.5,5.5c0.5,0.5,1.2,0.6,1.8,0.2
		c1.9-1.2,4-2.1,6.2-2.6c0.7-0.1,1.2-0.7,1.2-1.4v-7.8h5.9v7.8c0,0.7,0.5,1.3,1.2,1.4c2.2,0.5,4.3,1.4,6.2,2.6
		c0.6,0.4,1.3,0.3,1.8-0.2l5.5-5.5l4.1,4.1l-5.5,5.5c-0.5,0.5-0.6,1.2-0.2,1.8c1.2,1.9,2.1,4,2.6,6.2c0.1,0.7,0.7,1.2,1.4,1.2h7.8
		v5.9h-7.8c-0.7,0-1.3,0.5-1.4,1.2c-0.5,2.2-1.3,4.3-2.6,6.2c-0.4,0.6-0.3,1.3,0.2,1.8l5.5,5.5L53,60l-5.5-5.5
		c-0.5-0.5-1.2-0.6-1.8-0.2c-1.9,1.2-4,2.1-6.2,2.6c-0.7,0.1-1.2,0.7-1.2,1.4v7.8h-5.9v-7.8c0-0.7-0.5-1.3-1.2-1.4
		c-2.2-0.5-4.3-1.4-6.2-2.6c-0.6-0.4-1.3-0.3-1.8,0.2L17.7,60l-4.1-4.1l5.5-5.5c0.5-0.5,0.6-1.2,0.2-1.8c-1.2-1.9-2.1-4-2.6-6.2
		c-0.1-0.7-0.7-1.2-1.4-1.2H7.5V35.3z"/>
	<path class="st1" d="M35.3,50c6.5,0,11.7-5.2,11.7-11.7c0-6.5-5.2-11.7-11.7-11.7s-11.7,5.2-11.7,11.7C23.6,44.7,28.9,50,35.3,50z
		 M35.3,29.5c4.9,0,8.8,3.9,8.8,8.8c0,4.9-3.9,8.8-8.8,8.8s-8.8-3.9-8.8-8.8C26.6,33.4,30.5,29.5,35.3,29.5z"/>
	<path class="st1" d="M35.3,54.4c8.9,0,16.1-7.2,16.1-16.1c0-8.9-7.2-16.1-16.1-16.1s-16.1,7.2-16.1,16.1
		C19.2,47.2,26.4,54.4,35.3,54.4z M35.3,25.1c7.3,0,13.2,5.9,13.2,13.2s-5.9,13.2-13.2,13.2s-13.2-5.9-13.2-13.2
		C22.2,31,28.1,25.1,35.3,25.1z"/>
	<path class="st1" d="M88.1,74.9V63.2c0-0.8-0.7-1.5-1.5-1.5h-2.9V50c0-0.8-0.7-1.5-1.5-1.5H69.1c-0.8,0-1.5,0.7-1.5,1.5v11.7h-7.3
		c-0.8,0-1.5,0.7-1.5,1.5v11.7H11.9c-4,0-7.3,3.3-7.3,7.3v2.9c0,4,3.3,7.3,7.3,7.3h76.2c4,0,7.3-3.3,7.3-7.3v-2.9
		C95.4,78.2,92.1,74.9,88.1,74.9z M85.2,74.9H74.9V64.7h10.3V74.9z M70.5,51.5h10.3v10.3H70.5V51.5z M61.7,64.7H72v10.3H61.7V64.7z
		 M92.5,85.2c0,2.4-2,4.4-4.4,4.4H11.9c-2.4,0-4.4-2-4.4-4.4v-2.9c0-2.4,2-4.4,4.4-4.4h76.2c2.4,0,4.4,2,4.4,4.4V85.2z"/>
	<path class="st1" d="M50,79.3c-2.4,0-4.4,2-4.4,4.4c0,2.4,2,4.4,4.4,4.4s4.4-2,4.4-4.4C54.4,81.3,52.4,79.3,50,79.3z M50,85.2
		c-0.8,0-1.5-0.7-1.5-1.5c0-0.8,0.7-1.5,1.5-1.5s1.5,0.7,1.5,1.5C51.5,84.5,50.8,85.2,50,85.2z"/>
	<path class="st1" d="M35.3,79.3c-2.4,0-4.4,2-4.4,4.4c0,2.4,2,4.4,4.4,4.4c2.4,0,4.4-2,4.4-4.4C39.7,81.3,37.8,79.3,35.3,79.3z
		 M35.3,85.2c-0.8,0-1.5-0.7-1.5-1.5c0-0.8,0.7-1.5,1.5-1.5c0.8,0,1.5,0.7,1.5,1.5C36.8,84.5,36.2,85.2,35.3,85.2z"/>
	<path class="st1" d="M64.7,79.3c-2.4,0-4.4,2-4.4,4.4c0,2.4,2,4.4,4.4,4.4c2.4,0,4.4-2,4.4-4.4C69.1,81.3,67.1,79.3,64.7,79.3z
		 M64.7,85.2c-0.8,0-1.5-0.7-1.5-1.5c0-0.8,0.7-1.5,1.5-1.5s1.5,0.7,1.5,1.5C66.1,84.5,65.5,85.2,64.7,85.2z"/>
	<path class="st1" d="M20.7,79.3c-2.4,0-4.4,2-4.4,4.4c0,2.4,2,4.4,4.4,4.4s4.4-2,4.4-4.4C25.1,81.3,23.1,79.3,20.7,79.3z
		 M20.7,85.2c-0.8,0-1.5-0.7-1.5-1.5c0-0.8,0.7-1.5,1.5-1.5s1.5,0.7,1.5,1.5C22.2,84.5,21.5,85.2,20.7,85.2z"/>
	<path class="st1" d="M79.3,79.3c-2.4,0-4.4,2-4.4,4.4c0,2.4,2,4.4,4.4,4.4c2.4,0,4.4-2,4.4-4.4C83.7,81.3,81.7,79.3,79.3,79.3z
		 M79.3,85.2c-0.8,0-1.5-0.7-1.5-1.5c0-0.8,0.7-1.5,1.5-1.5c0.8,0,1.5,0.7,1.5,1.5C80.8,84.5,80.1,85.2,79.3,85.2z"/>
</g>
</svg>
