<?xml version="1.0" encoding="utf-8"?>
<!-- Generator: Adobe Illustrator 21.1.0, SVG Export Plug-In . SVG Version: 6.00 Build 0)  -->
<svg version="1.1" id="Ñëîé_1" xmlns="http://www.w3.org/2000/svg" xmlns:xlink="http://www.w3.org/1999/xlink" x="0px" y="0px"
	 viewBox="0 0 100 100" style="enable-background:new 0 0 100 100;" xml:space="preserve">
<style type="text/css">
	.st0{fill:#FF7900;}
	.st1{fill:#1A1A18;}
</style>
<g>
	<path class="st0" d="M29.3,17.2V57c0,0,5.4-2.7,9.5-2.3s3.9,3.2,12.2,3.2s15,0.2,16.6,1.7s5.4,1.2,5.7,0c0.3-1.2,0-42.3,0-42.3
		H58.2L57,38.9H45.6L45,17.2H29.3z"/>
	<g>
		<path class="st1" d="M87.1,58.1L87.1,58.1c-1.3-1.8-3.2-3-5.5-3.4c-2.2-0.4-4.4,0.1-6.2,1.4V14.6H26.9v42.6H11.3v28.2h52
			l21.9-15.6C88.9,67.1,89.8,61.9,87.1,58.1L87.1,58.1z M82.5,66.1L61.8,80.8H31.5V60.3c2.3-2.4,4.8-3.4,8.2-3.4
			c2.3,0,4.9,0.8,6.5,2l0.6,0.5h17.1c1.8,0,3.3,1.5,3.3,3.4c0,1.9-1.5,3.4-3.3,3.4h-9.8v4.5h9.8c3.8,0,6.9-2.7,7.7-6.3l6.5-4.6
			c0.8-0.6,1.9-0.8,2.9-0.7c1,0.2,1.9,0.7,2.5,1.6v0C84.7,62.5,84.3,64.9,82.5,66.1L82.5,66.1z M27,80.8H15.8V61.7H27V80.8z
			 M54.6,19.2v17.4h-6.8V19.2H54.6z M59.1,41.1v-22h11.8v40.1l-0.1,0c-1.3-2.6-4-4.5-7-4.5H48.2c-2.3-1.5-5.5-2.4-8.5-2.4
			c-3.1,0-5.8,0.7-8.2,2.2V19.2h11.8v22L59.1,41.1L59.1,41.1z"/>
	</g>
</g>
</svg>
