<?xml version="1.0" encoding="utf-8"?>
<!-- Generator: Adobe Illustrator 21.1.0, SVG Export Plug-In . SVG Version: 6.00 Build 0)  -->
<svg version="1.1" id="Ñëîé_1" xmlns="http://www.w3.org/2000/svg" xmlns:xlink="http://www.w3.org/1999/xlink" x="0px" y="0px"
	 viewBox="0 0 100 100" style="enable-background:new 0 0 100 100;" xml:space="preserve">
<style type="text/css">
	.st0{fill:#FF7900;}
	.st1{fill:#1A1A18;}
</style>
<path class="st0" d="M77.4,39.4C70.7,37,63,36.3,63,36.3s1.8-8.3-2.4-14.7S50,9.8,50,9.8s-5.1,3.7-8.1,8.4s-6.1,11.8-6.1,16
	s0.7,2.6-2.2,2.8s-9.4,1.5-14.9,5s-9.4,8.8-9.4,8.8S14,60,22.8,62.5c8.8,2.6,13.4,2.4,13.4,2.4s-0.9,1.1,0.9,7.9s6.6,14.3,9.7,16.3
	s6.1,0.9,8.4-2.2s7.5-9.9,8.1-14.1c0.4-3.2,0.2-6.5,0.1-7.9c-0.5,0.6-2.1-0.2-4-0.6C57,63.8,50,60.4,50,60.4s4.4-2.9,5.6-4.5
	c1.2-1.5,3.3-4.4,3.3-4.4s4.7,10.7,4.7,12.5c0,0,0,0,0,0.1c1.6,0,10.6-0.3,16.5-3.7c6.4-3.7,10.5-9.8,10.5-9.8S84,41.8,77.4,39.4z
	 M40.4,64.3c-2.4,0.5-4.3,1.7-4.2-0.2c0.1-1.8,4.7-12.5,4.7-12.5s2.1,2.8,3.3,4.4c1.2,1.5,5.6,4.5,5.6,4.5S42.8,63.8,40.4,64.3z
	 M45.8,44.9c-1.5,1.3-4.2,5.8-4.2,5.8s-3.7-6.9-4.2-9.3s-1.8-4.2,0-4.2S50,41.4,50,41.4S47.2,43.6,45.8,44.9z M59.4,50.8
	c0,0-2.2-2.8-3.5-4.2S50,42.3,50,42.3s6.9-3.7,9.3-4.2s4.2-1.8,4.2,0S59.4,50.8,59.4,50.8z"/>
<g>
	<g>
		<path class="st1" d="M97,34.3C97,17.1,82.9,3,65.7,3C60,3,54.6,4.6,50,7.2C45.4,4.6,40,3,34.3,3C17.1,3,3,17.1,3,34.3
			C3,40,4.6,45.4,7.2,50C4.6,54.6,3,60,3,65.7C3,82.9,17.1,97,34.3,97c5.7,0,11.1-1.6,15.7-4.2c4.6,2.7,10,4.2,15.7,4.2
			C82.9,97,97,82.9,97,65.7c0-5.7-1.6-11.1-4.2-15.7C95.4,45.4,97,40,97,34.3z M65.7,6.9c15.1,0,27.4,12.3,27.4,27.4
			c0,4.3-1,8.4-2.8,12c-5.7-7.3-14.6-12-24.6-12c0-10-4.7-18.9-12-24.6C57.3,7.9,61.4,6.9,65.7,6.9z M88.1,50
			c-5,7.1-13.2,11.8-22.5,11.8c-0.1,0-0.2,0-0.3,0c-0.5-4.2-1.9-8.2-4-11.7c2.1-3.5,3.4-7.5,4-11.7c0.1,0,0.2,0,0.3,0
			C75,38.3,83.2,42.9,88.1,50z M61.8,34.3c0,0.1,0,0.2,0,0.3c-4.2,0.5-8.2,1.9-11.7,4c-3.5-2.1-7.5-3.4-11.7-4c0-0.1,0-0.2,0-0.3
			c0-9.3,4.7-17.5,11.8-22.5C57.1,16.8,61.8,25,61.8,34.3z M41.1,53.7c1.5,2,3.3,3.7,5.3,5.3c-2.4,1.2-5,2-7.7,2.4
			C39.1,58.7,39.9,56.1,41.1,53.7z M38.6,38.6c2.7,0.4,5.3,1.3,7.7,2.4c-2,1.5-3.7,3.3-5.3,5.3C39.9,43.9,39.1,41.3,38.6,38.6z
			 M43.2,50c1.9-2.6,4.2-4.9,6.8-6.8c2.6,1.9,4.9,4.2,6.8,6.8c-1.9,2.6-4.2,4.9-6.8,6.8C47.4,54.9,45.1,52.6,43.2,50z M58.9,53.7
			c1.2,2.4,2,5,2.4,7.7c-2.7-0.4-5.3-1.3-7.7-2.4C55.6,57.4,57.4,55.6,58.9,53.7z M58.9,46.3c-1.5-2-3.3-3.7-5.3-5.3
			c2.4-1.2,5-2,7.7-2.4C60.9,41.3,60.1,43.9,58.9,46.3z M38.6,50c-2.1,3.5-3.4,7.5-4,11.7c-0.1,0-0.2,0-0.3,0
			c-9.3,0-17.5-4.7-22.5-11.8c5-7.1,13.2-11.8,22.5-11.8c0.1,0,0.2,0,0.3,0C35.1,42.5,36.5,46.5,38.6,50z M6.9,34.3
			c0-15.1,12.3-27.4,27.4-27.4c4.3,0,8.4,1,12,2.8c-7.3,5.7-12,14.6-12,24.6c-10,0-18.9,4.7-24.6,12C7.9,42.7,6.9,38.6,6.9,34.3z
			 M34.3,93.1c-15.1,0-27.4-12.3-27.4-27.4c0-4.3,1-8.4,2.8-12c5.7,7.3,14.6,12,24.6,12c0,10,4.7,18.9,12,24.6
			C42.7,92.1,38.6,93.1,34.3,93.1z M38.3,65.7c0-0.1,0-0.2,0-0.3c4.2-0.5,8.2-1.9,11.7-4c3.5,2.1,7.5,3.4,11.7,4c0,0.1,0,0.2,0,0.3
			c0,9.3-4.7,17.5-11.8,22.5C42.9,83.2,38.3,75,38.3,65.7z M93.1,65.7c0,15.1-12.3,27.4-27.4,27.4c-4.3,0-8.4-1-12-2.8
			c7.3-5.7,12-14.6,12-24.6c10,0,18.9-4.7,24.6-12C92.1,57.3,93.1,61.4,93.1,65.7z"/>
	</g>
</g>
</svg>
