<?xml version="1.0" encoding="utf-8"?>
<!-- Generator: Adobe Illustrator 21.1.0, SVG Export Plug-In . SVG Version: 6.00 Build 0)  -->
<svg version="1.1" id="Ñëîé_1" xmlns="http://www.w3.org/2000/svg" xmlns:xlink="http://www.w3.org/1999/xlink" x="0px" y="0px"
	 viewBox="0 0 268 50" style="enable-background:new 0 0 268 50;" xml:space="preserve">
<style type="text/css">
	.st0{fill-rule:evenodd;clip-rule:evenodd;fill:#FF7900;}
</style>
<g>
	<path class="st0" d="M174.2,1.9h41.6V11h-41.6V1.9z M174.2,20.4h41.6v9.1h-41.6V20.4z M225.1,1.9h41.6V11h-41.6V1.9z M225.1,39
		h41.6v9.1h-41.6V39z M225.1,20.4h41.6v9.1h-41.6V20.4z M80.8,11v9.4h32.4v9.1H80.8V39l0,0v9.1h-9.1v-2.3V39v-9.4v-9.1V11V4.2V1.9
		h41.6V11H80.8z M24.3,11H10.5v9.4h27.1c3.3,0,4.8-2.3,4.8-4.9c0-2.6-2.3-4.5-4.8-4.5H24.3z M24.3,48.1H8.8H1.3v-2.3V39v-9.4v-9.1
		V11V4.2V1.9h7.5h15.4h14.4c8.4,0,13.3,5.9,13.7,12.9c0.2,3.5-0.9,7.2-3.3,10.1c2,2.3,3.1,5.3,3.3,8.5c0.4,6.9-4.3,14.8-13.9,14.8
		H24.3z M10.5,39h13.8h13.3c3.3,0,4.8-2.3,4.8-4.9c0-2.6-2.3-4.5-4.8-4.5H10.5V39z M120,20.4h28.7c3.3,0,4.8-2.3,4.8-4.9
		c0-2.6-2.3-4.5-4.8-4.5H120V1.9h29.9c8.4,0,13.3,5.9,13.7,12.9c0.4,6.9-4.3,14.8-13.9,14.8h-0.5l15.1,18.2h-11.5l-15.1-18.2H120
		V20.4z M55,39h9.4v9.1H55V39z M174.2,39h41.6v9.1h-41.6V39z"/>
</g>
</svg>
