<?xml version="1.0" encoding="utf-8"?>
<!-- Generator: Adobe Illustrator 21.1.0, SVG Export Plug-In . SVG Version: 6.00 Build 0)  -->
<svg version="1.1" id="OBJECTS" xmlns="http://www.w3.org/2000/svg" xmlns:xlink="http://www.w3.org/1999/xlink" x="0px" y="0px"
	 viewBox="0 0 146 146.7" style="enable-background:new 0 0 146 146.7;" xml:space="preserve">
<style type="text/css">
	.st0{fill-rule:evenodd;clip-rule:evenodd;fill:#F66200;}
	.st1{fill-rule:evenodd;clip-rule:evenodd;fill:#582DB3;}
	.st2{opacity:0.2;fill-rule:evenodd;clip-rule:evenodd;}
	.st3{fill-rule:evenodd;clip-rule:evenodd;fill:#FF7900;}
	.st4{fill-rule:evenodd;clip-rule:evenodd;fill:#361984;}
	.st5{fill:#FFFFFF;}
</style>
<g>
	<g>
		<g>
			<path class="st0" d="M117.8,126.1H28.2c-4.4,0-7.9-3.5-7.9-7.9l0-89.7c0-4.4,3.5-7.9,7.9-7.9h89.7c4.4,0,7.9,3.5,7.9,7.9v89.7
				C125.7,122.5,122.2,126.1,117.8,126.1z"/>
			<path class="st1" d="M113.1,120.4H32.9c-3.9,0-7-3.2-7-7l0-80.1c0-3.9,3.2-7,7-7h80.1c3.9,0,7,3.2,7,7l0,80.1
				C120.1,117.3,116.9,120.4,113.1,120.4z"/>
			<polygon class="st2" points="44.8,20.6 20.3,45.2 20.3,101.5 44.8,126.1 101.2,126.1 125.7,101.5 125.7,45.2 101.2,20.6 			"/>
		</g>
		<g>
			<g>
				<path class="st3" d="M142,78.9l-63.4,63.4c-3.1,3.1-8.1,3.1-11.2,0L4,78.9c-3.1-3.1-3.1-8.1,0-11.2L67.4,4.3
					c3.1-3.1,8.1-3.1,11.2,0L142,67.8C145.1,70.8,145.1,75.8,142,78.9z"/>
				<path class="st1" d="M133.2,78l-55.6,55.6c-2.7,2.7-7.1,2.7-9.8,0L12.3,78c-2.7-2.7-2.7-7.1,0-9.8l55.6-55.6
					c2.7-2.7,7.1-2.7,9.8,0l55.6,55.6C135.9,70.9,135.9,75.3,133.2,78z"/>
				<path class="st3" d="M4,67.8c-3.1,3.1-3.1,8.1,0,11.2l12.8,12.8h112.4L142,78.9c3.1-3.1,3.1-8.1,0-11.2L129.2,55H16.8L4,67.8z"
					/>
			</g>
			<g>
				<path class="st4" d="M87.5,29.4L77.2,19.1c-2.3-2.3-6.1-2.3-8.5,0L58.4,29.4L87.5,29.4z"/>
				<path class="st4" d="M47.8,106.6l21,21c2.3,2.3,6.1,2.3,8.5,0l21-21L47.8,106.6z"/>
			</g>
			<polygon class="st3" points="31.3,44.7 6.5,69.7 6.5,75.8 26.8,97.3 117.5,97.3 139,77.3 139,68.8 110.8,44.7 			"/>
		</g>
	</g>
	<g>
		<g>
			<path class="st5" d="M56.9,37.2c0.8,0.3,1.4,1.2,1.4,2.3c0,1.8-1.2,3.1-3.7,3.1h-5.2V31.8h5c2.4,0,3.5,1.3,3.5,2.8
				c0,1-0.4,1.8-1.1,2.1V37.2z M54.2,36.1c1,0,1.5-0.4,1.5-1.2s-0.5-1.2-1.5-1.2h-2.5v2.4H54.2z M54.3,40.6c1.1,0,1.7-0.4,1.7-1.3
				c0-0.9-0.6-1.4-1.7-1.4h-2.6v2.7H54.3z"/>
			<path class="st5" d="M68.5,39.1c-0.3,2.1-2,3.6-4.5,3.6c-3.3,0-5.1-2.3-5.1-5.5s1.9-5.5,5.1-5.5c2.4,0,4,1.3,4.4,3.3h-2.3
				c-0.3-0.9-0.9-1.3-2-1.3c-1.9,0-2.8,1.6-2.8,3.6s0.9,3.6,2.8,3.6c1.2,0,1.9-0.6,2.1-1.6H68.5z"/>
			<path class="st5" d="M77.7,40.5v2h-8.1V31.8h7.9v2h-5.7v2.3h4.4v2h-4.4v2.5H77.7z"/>
			<path class="st5" d="M80.9,33.8v8.7h-2.2V31.8h7.7v2H80.9z"/>
			<path class="st5" d="M97,37.2c0,3.1-1.8,5.5-5.2,5.5c-3.4,0-5.2-2.4-5.2-5.5c0-3.2,1.8-5.5,5.2-5.5C95.2,31.6,97,34,97,37.2z
				 M94.7,37.2c0-2-0.9-3.6-2.9-3.6c-2,0-2.9,1.6-2.9,3.6s0.9,3.6,2.9,3.6C93.8,40.7,94.7,39.1,94.7,37.2z"/>
		</g>
	</g>
	<g>
		<g>
			<g>
				<path class="st5" d="M41.8,92.2H30.6l16-31.1v-1.7H27.8v-9.2h29.9v10.9L41.8,92.2z"/>
				<path class="st5" d="M86.9,70.7c2.6,1.3,6.1,4.1,6.1,9.5C93,86.8,87.5,93,76.2,93c-11.4,0-16.9-6.2-16.9-12.8
					c0-5.3,3.4-8.2,6.1-9.5V69c-2-1.1-4.7-3.5-4.7-8.3c0-6.1,5.3-11.3,15.4-11.3c10,0,15.4,5.2,15.4,11.3c0,4.8-2.7,7.1-4.7,8.3
					V70.7z M82.3,79.2c0-2.4-1.7-5.2-6.1-5.2c-4.5,0-6.2,2.8-6.2,5.2c0,2.6,1.7,5.2,6.2,5.2C80.6,84.4,82.3,81.7,82.3,79.2z
					 M71,62.1c0,2.4,1.7,4.7,5.2,4.7s5.1-2.3,5.1-4.7c0-2.3-1.7-4.7-5.1-4.7S71,59.7,71,62.1z"/>
			</g>
		</g>
		<g>
			<path class="st5" d="M111.7,60.6c6.1,0,9.6,3.1,9.6,8.4c0,5.4-3.5,8.5-9.6,8.5h-5.5v2.3h6.9v2.6h-6.9v4.8h-5.5v-4.8h-3.5v-2.6
				h3.5v-2.3h-3.5v-4.6h3.5V60.6H111.7z M106.3,72.9h4.7c3.5,0,4.9-1.5,4.9-3.9s-1.4-3.8-4.9-3.8h-4.7V72.9z"/>
		</g>
	</g>
	<g>
		<g>
			<path class="st5" d="M56.7,102.2c0.6,0.2,1.1,0.7,1.1,1.5c0,1.2-0.8,1.8-2.4,1.8h-3.9v-6.7h3.8c1.4,0,2.1,0.6,2.1,1.7
				c0,0.7-0.4,1.1-0.8,1.3V102.2z M53.3,101.5h1.5c0.6,0,0.8-0.3,0.8-0.6c0-0.4-0.2-0.7-0.8-0.7h-1.5V101.5z M55.1,104.3
				c0.7,0,0.9-0.3,0.9-0.7s-0.2-0.8-0.9-0.8h-1.7v1.5H55.1z"/>
			<path class="st5" d="M58.8,98.9h2.4l1.4,2.8h0.3l1.4-2.8h2.4v6.7h-1.8v-4.3h-0.3l-1.1,2.2h-1.5l-1.1-2.2h-0.3v4.3h-1.8V98.9z"/>
			<path class="st5" d="M74.1,102.4h-4.8c0.1,1.1,0.6,1.8,1.6,1.8c0.7,0,1.1-0.2,1.2-0.7h1.8c-0.3,1.3-1.3,2.2-3.1,2.2
				c-2.1,0-3.4-1.4-3.4-3.5c0-2.1,1.3-3.5,3.4-3.5c2,0,3.2,1.4,3.2,3.2V102.4z M69.4,101.2h2.9c-0.1-0.7-0.5-1.1-1.4-1.1
				C70,100.1,69.6,100.6,69.4,101.2z"/>
			<path class="st5" d="M81.1,103.3c-0.2,1.4-1.4,2.4-3.1,2.4c-2.1,0-3.4-1.4-3.4-3.5c0-2.1,1.3-3.5,3.4-3.5c1.7,0,2.8,0.9,3,2.3
				h-1.8c-0.1-0.5-0.5-0.8-1.2-0.8c-1.1,0-1.6,0.9-1.6,2c0,1.1,0.4,2,1.6,2c0.7,0,1.1-0.3,1.2-0.9H81.1z"/>
			<path class="st5" d="M81.4,98.9h6.2v1.5h-2.2v5.2h-1.8v-5.2h-2.2V98.9z"/>
			<path class="st5" d="M94.8,102.2c0,2.1-1.3,3.5-3.5,3.5c-2.1,0-3.5-1.4-3.5-3.5s1.4-3.5,3.5-3.5C93.5,98.7,94.8,100.1,94.8,102.2
				z M93,102.2c0-1.1-0.5-2-1.6-2c-1.1,0-1.6,0.9-1.6,2c0,1.1,0.5,2,1.6,2C92.5,104.2,93,103.3,93,102.2z"/>
		</g>
	</g>
	<g>
		<g>
			<path class="st5" d="M53.8,119.7h2.8v-7.8h-0.5l-2.4,1.6V111l2.4-1.7h3v10.4h2.6v2.3h-8V119.7z"/>
			<path class="st5" d="M62.4,119.7h2.8v-7.8h-0.5l-2.4,1.6V111l2.4-1.7h3v10.4h2.6v2.3h-8V119.7z"/>
			<path class="st5" d="M70.8,113.5c0-2.4,1.8-4.5,4.6-4.5c2.9,0,5,1.7,5,6.3c0,3.9-1.6,6.8-5.1,6.8c-2.3,0-4-1.5-4.2-3.3h2.6
				c0.2,0.7,0.7,1.2,1.7,1.2c1.4,0,2.4-1.1,2.6-3.3h-0.5c-0.4,0.5-1.2,1-2.6,1C72.6,117.7,70.8,116,70.8,113.5z M73.4,113.4
				c0,1.4,0.9,2.2,2.1,2.2c1.2,0,2.1-0.7,2.1-2.2s-0.9-2.2-2.1-2.2C74.3,111.2,73.4,112,73.4,113.4z"/>
			<path class="st5" d="M87.8,109.3c2.9,0,4.5,1.5,4.5,4c0,2.5-1.6,4-4.5,4h-2.6v1.1h3.3v1.2h-3.3v2.3h-2.6v-2.3H81v-1.2h1.7v-1.1
				H81v-2.2h1.7v-5.8H87.8z M85.2,115.1h2.2c1.7,0,2.3-0.7,2.3-1.9s-0.6-1.8-2.3-1.8h-2.2V115.1z"/>
		</g>
	</g>
</g>
</svg>
